<svg width="57" height="57" viewBox="0 0 57 57" fill="none" xmlns="http://www.w3.org/2000/svg">
<path d="M2.375 2.375H11.875L18.24 34.1763C18.4572 35.2697 19.052 36.2519 19.9204 36.951C20.7888 37.65 21.8754 38.0214 22.99 38H46.075C47.1896 38.0214 48.2762 37.65 49.1446 36.951C50.013 36.2519 50.6078 35.2697 50.825 34.1763L54.625 14.25H14.25M23.75 49.875C23.75 51.1867 22.6867 52.25 21.375 52.25C20.0633 52.25 19 51.1867 19 49.875C19 48.5633 20.0633 47.5 21.375 47.5C22.6867 47.5 23.75 48.5633 23.75 49.875ZM49.875 49.875C49.875 51.1867 48.8117 52.25 47.5 52.25C46.1883 52.25 45.125 51.1867 45.125 49.875C45.125 48.5633 46.1883 47.5 47.5 47.5C48.8117 47.5 49.875 48.5633 49.875 49.875Z" stroke="#1E1E1E" stroke-width="4" stroke-linecap="round" stroke-linejoin="round"/>
</svg>
